<?xml version="1.0" encoding="UTF-8"?>
<svg xmlns="http://www.w3.org/2000/svg" xmlns:xlink="http://www.w3.org/1999/xlink" id="Layer_1" viewBox="0 0 609 145">
  <defs>
    <style>
      .cls-1 {
        fill: #2a363e;
      }

      .cls-1, .cls-10, .cls-11, .cls-12, .cls-13, .cls-15, .cls-16, .cls-17, .cls-2, .cls-3, .cls-4, .cls-5, .cls-6, .cls-7, .cls-8, .cls-9 {
        fill-rule: evenodd;
      }

      .cls-2 {
        fill: #0b151a;
      }

      .cls-3 {
        fill: #cc7929;
      }

      .cls-4 {
        fill: #d89c28;
      }

      .cls-5 {
        fill: #b55e27;
      }

      .cls-14, .cls-6 {
        fill: #fff;
      }

      .cls-7 {
        fill: #e0dedf;
      }

      .cls-8 {
        fill: #eea293;
      }

      .cls-9 {
        fill: #111d24;
      }

      .cls-10 {
        fill: #33464c;
      }

      .cls-11 {
        fill: #d6725e;
      }

      .cls-13 {
        fill: url(#GradientFill_1);
      }

      .cls-15 {
        fill: url(#GradientFill_1-2);
      }

      .cls-16 {
        fill: #1a1a1a;
      }

      .cls-17 {
        fill: url(#Blue_GradientFill_6);
      }

      .cls-18 {
        fill: #373a36;
      }
    </style>
    <radialGradient id="GradientFill_1" cx="132.98" cy="70.78" r="4.12" gradientTransform="translate(-23.17 0.01) scale(0.97 0.99)" gradientUnits="userSpaceOnUse">
      <stop offset="0" stop-color="#f16623"/>
      <stop offset="1"/>
    </radialGradient>
    <radialGradient id="GradientFill_1-2" cx="95.84" cy="71.98" r="5.25" xlink:href="#GradientFill_1"/>
    <radialGradient id="Blue_GradientFill_6" cx="62.37" cy="110.7" r="25.41" gradientTransform="translate(-23.17 0.01) scale(0.97 0.99)" gradientUnits="userSpaceOnUse">
      <stop offset="0" stop-color="#fff"/>
      <stop offset="1" stop-color="#81d1e2"/>
    </radialGradient>
  </defs>
  <title>autopsy-logo</title>
  <g>
    <g>
      <path class="cls-1" d="M35.22,5.17c0.53,10,.37,16.57-1.19,23.27C29.36,48.53,26.73,44.29,36.34,62l2.25,7.48L40,73.81l-1.12,9.5,13.21-.58,4.5,6.33L79.9,96.83l2-3.17,7.59-.86,12.08,0.29h1.4l2.25-2.88,4.5,4.6,2.25-8.92,11,1.44L115,74.1V66.9l-0.28-6.62-1.41-4.6-10-10h0.3L109.12,51a39.93,39.93,0,0,0,.52-18.43c-2.55-10.77-1.92-13.51,0-27-9.75,13.89-6.55,22.92-12.42,37.8L96.47,43l-23.32.58-15,3.83c1.8-1.31.54-5.59-1.79-11.52C52.31,25.56,45.66,10.2,35.22,5.17Z"/>
      <path class="cls-2" d="M30.29,48.24l0.15,2.55,0.28,0.86C35.58,60.6,37,64.5,40,73.81l-1.12,9.5,9.53-.42c-2.49-6-3.1-7.49,1.51-12l2.53,0.3c5.13,0.62,1.59,5.44-1,7.61l4.64,2,10.4,3.31-7-3.88c8.05,0.32,9.34.79,17.28,2.73l1.69,3.74L78.3,83.39l0.84-4.89-8.85.58L59,76.92l0.56-2.59,0.24-7.72-4-.48c-4.3,2.11-4,2.82-8.15.58l4.92-7.48-3.51,3-3.23,2c-9.45-4.63-9.76-7.4-14.89-16.69l-0.66.67h0ZM81.66,79.29c1,5.94.55,8.58,7.66,10.29-5.34,1.48-7.45,1.83-10.19,5-0.2-4.8,0-11.24,2.53-15.32h0Zm28.24-14.71c-4.81,4-8.29,5.82-12.57,12.05l-2.25,1.65-0.91.29,0.77-2.81,0.63-3.88,0.14-.22,0.21-3.53c4.72,5,7-3,14-3.56h0ZM89.32,72.46L88,75.62c-2.12,2.81-3.72,2.1-6.81.72l-0.84-.5H79.84l-2.53-.22c-8.16-6.12-7.92-6.15-17.42-10.07C70.2,67,73.51,71.43,80,72.82l1.48-2.45V70.8C83.28,75.79,85.55,75.33,89.32,72.46Z"/>
      <path class="cls-3" d="M40.63,84.74c10.44-7.26,12.74-2.91,23,1.44L57.48,87c11.14,2.77,13.41,4,23,10.07l6.18,5.76,6.46,2.88h9l1.21-.81,5-5.8c1.3-5.31,2-9.6,3.93-14.68l-3.37,1.44c7.36-7,8.64-4,16.3,2L126.33,96l-1.12,5.47-3.09,5.47-2,.86v6.62l-4.78,4.89-2.81,2,1.69,5.47-1.12,4.32-7.31,7.77h-3.37L91.77,137.4,85,138l-7,3.45L71.53,140l-3.09-4.32L64.79,125,54.18,123l-13-7.33C31.81,102.46,31,96.12,40.63,84.74Z"/>
      <path class="cls-4" d="M121.62,99.06l0.07-3.6-0.07-2.66-1.48,2.52c-1-7.39-.58-11.89-7.45-5.68l2.25-.79a43.33,43.33,0,0,0-5.55,6.55l-0.3-.81,3.53-11.22c3.09-.91,4.67-0.7,6.27.71a12.49,12.49,0,0,1,2.72,15h0ZM64.07,86c-8.64-4-12.84-3.59-19,4.6,3.78-2,3.85-1.95,7.87-2.88-9.41,6-4.84,8.7-4.07,18.7,1.16-8.88-2.05-8.94,2.53-14.84,2.69-3.46,6.08-3.14,10.11-3.14l-2.81-1.29L64.07,86h0Zm26.25,38.14c4.71-1.48,6.57-1.4,10.46-.57,3.4,0.72,6.37,1.55,9.84,2l0.21,0.07a5.13,5.13,0,0,1,.07,4.53c-3.66,2.23-4.52,2.33-8.71,3,3.24-1.83,3.61-1.71,5.76-4.46l-0.42-1.29a30.4,30.4,0,0,1-6.6-2.37c-4.53-1.26-6.07-1.09-10.61-.94h0ZM63,89.49c8.57,3.22,9.13,3,13.29,6.74,3.54,3.18,10.39,9.72,4.83,13.4-0.44.17-.64,0.4-0.84,0.43-6.08-.52-6.27-7.56-6.74-12.37l-0.7,2.45C68.83,93,70.2,95,63,89.49h0Zm52.76,7.63c-3.05,5.73-1.93,9.16-4.85,14.1l1.69-.72c-3.13,4.72-3.36,4.73-8.85,5.4,3.85,0.77,7.27,2.26,10.68-.36,2.42-1.86,3-3.93,1.68-8.06C114.43,102.2,114.55,102.49,115.79,97.11Z"/>
      <path class="cls-5" d="M40,84.74c0.62-.43,7.34-2.7,7.91-3.05L41.27,92c-2.52,8.41-3.79,12.06,5.15,21,0,0,6.86,3.25,12.32,4a27.33,27.33,0,0,1,2.55-11.32c-0.16-2.94,1.58-5.37-.08-10.73,2.21,4.44,1.63,2.32,2.86,5.5,1.8,4.63,1.38,1.94,4.88,13.16,5.58,6.45,10.17,5,16.7.75l-2.11,3.17c5-4.13,6.76-4.63,3.23-10.22L83.41,103l5.4,1.07,3.73,1.66h9l1.06-.27c-3.81,4.64-6.26,6.95-.47,10.2,3.34,1.87,7.5,2.72,10.84,1.37s4.21-3.39,5.7-7.56c-1.26-5.91-3.76-8.42-1.4-13.67,2.36,7.91,4.15,6.59,8.07,1.92l-0.76,3.7-2.48,6.41L119.7,110l-0.18,4.38,0,0.07-4.74,4.85-2.81,2,1.69,5.47-1.12,4.32-7.31,7.77h-3.37L91.14,137.4l-6.74.58-7,3.45L70.9,140l-3.09-4.32L64.16,125l-10-2.07L39,114.43c-5.36-12-9.32-13.46-2.65-25.66l3.65-4h0Zm60.2,42.52c-3.41.55-8.22,0.63-10.68,3.31,0,3.17,8,1.25,9.9,1.08l-2,2.73c5.39,0,12.26-1,15.45-5.9V124.6l-0.28-1c-6,.26-17.36-2.83-21.51-0.2a28,28,0,0,1-18,4.23l-3.51-.43c1.91,5.88,2.35,6.77,8.15,8.49l-1.4-1.87L79,134.28c1.69,0.3,5.62-2.65,8.42-4.61C92.11,126.43,94.85,126.73,100.2,127.26Z"/>
      <path class="cls-6" d="M61,66.27l-0.93,5.45,1,4.75c6.21,2.74,11.34,4.93,17.14.29C70.32,68.4,67.88,64.69,61,66.27h0Zm36.86,8.33c5.49-6.14,9.46-10.89,16-8.63l-0.14,5.61L113.65,75l-5.76,1.73-4.35.43-3.23-.29Z"/>
      <path class="cls-7" d="M73.91,78.49c-8.23-1.36-13.12-11.13-4.78-10.39l-3.48-.66-1.42-.07-3.08.07c-3,10.46,3.37,12,12.76,11.05h0Zm39.16-5.19-0.14.37c-0.48.91-.87,1.63-1.19,2.21l-3.81,1.19-4.33.45-3.21-.3L98,74.84c4.87-2.8,3.25-5.35,8.6-6.79a44.57,44.57,0,0,0-3.25,5.89C102,76.27,105.29,77.72,113.07,73.3Z"/>
      <path class="cls-8" d="M37.84,10.16c2.59,13.89-1.52,21.54-1.24,28,0.39,8.88-1,13.39,9.66,21.91l0.14-5h0.7l0.47,0.41c2.88-17.91-1.74-38.22-9.75-45.31h0Zm70.72,40,4.37,5.1c11.21-11.13,9.26-8.78,3.54-23.33-3.06-7.78-6.19-17.7-6.35-25.45l-0.63.43V7.64a2,2,0,0,1-.12,1L108,16.33V19.6l1,6a9,9,0,0,1,.37,3.15l1.11,6a12.24,12.24,0,0,1,.25,2.65v3.65a30.81,30.81,0,0,1-.25,3.15Z"/>
      <path class="cls-9" d="M83.57,100l-1.9-2.52,0.7-3.24,0.35-.14,4.64-.94,10.4,0.65h0.42l7.59-1.8L106.33,91a0.86,0.86,0,0,1,.84.5l1.69,2.37a0.87,0.87,0,0,1-.21.65L108,96.13a2.33,2.33,0,0,0-.42,1l-1,1.94-0.28.14-4.14-.14a17.38,17.38,0,0,0-1.76-.22H89.54c-0.49,0-.8.07-1.19,0.07Z"/>
      <path class="cls-10" d="M88.64,45.38c7.79,0.32,9.71.2,12.31,3,1.34,1.44,2.85,3.66,5.44,7.1,5.62,5.43-3.79,6.8-9.31,8.38,4.56-3.42,6.08-4.19,2-12.1l1.73,0.53c-3.08-5.93-6.27-5.61-12.2-6.92h0ZM47.38,20.85c4.26,7.19,6.69,11.46,9.38,19.49,1.65,4.93,2.7,4.46-1,11.08C60.57,50.15,60,51,63.2,47.54c10.52-2.29,11.91-.87,20.93,2.45-6.11-1-12-2.62-18-.58-3.23,3-4.31,3.9-8.29,5.76l0.28-1.58a46.76,46.76,0,0,1-5.34,1.58c4.62-13-1.09-18-5.43-34.32h0Zm66.79,55.83c-5.69,1.88-7.11,2.47-13.28,1.94C105,80,104.28,79.81,108.48,80l-1.9,1.08c3.91,1,4.22.64,7.8-.36l3.86,1.37-4.07-5.4h0ZM93.62,66.61c0.7,3.7,1.93,7.35.42,10.86l-3.44.36c3.09-3.82,3-6.21,3-11.22h0ZM83.3,74.16c6,0.56,5.82-2.24,4.5-7.91-0.7,4.81-.21,5.39-4.92,6l0.42,1.87h0ZM78,67.54L78,67.08c-1.82-9.33-13.57-8.54-21-9.21,9.37,4,11.81,2.12,20.94,9.66h0ZM96.36,80.06L100.44,85c2.79,4.88,4.1,5.43-1.41,6.33-4.53,0-9.43-.13-13.91.29,4.67-1.56,7.87-2,12.22-3.17l0.56-2.88Z"/>
      <path class="cls-11" d="M37.59,28.77c-0.18,18.38-5.43,19.46,8.68,31.32l0.14-5L47.83,55c1.56-3.09,1.48-18.87-4-32.83,2.88,39.33-5.4,28.8-6.25,6.64h0Zm72.77,15.73c0.52,0.5,1.42.14,3.16-1.73,3.81-4.1,1.94-8.15,2.29-14.3,6.42,11.69,8.31,15.69-2.87,26.79l-4.34-5.06h0Z"/>
      <path class="cls-12" d="M37.63,29.33c-0.85,14.75-1.54,22.88,7.32,27.82-1.94-4.92-3-5.24-.94-10.67a13.9,13.9,0,0,0,4.13,7.44c0.42-2.15.86-4.68,0.3-10.66,1.53,3.37,3.42,8.8,1.89,14.58L47.65,57l0.28,5C31.17,56.87,33.91,42.9,37.63,29.33Z"/>
      <path class="cls-3" d="M80.41,64.58c-1.55-3.13-3.15-4.57-1.65-5.17,2.2-.88,6.22-0.81,5.82,2.73a6.76,6.76,0,0,1-.13.67C83.74,65.18,82.1,68,80.41,64.58Z"/>
      <path class="cls-3" d="M95.82,63.56c1.11-3.12,1.65-3.75.06-4.37-2.33-.9-5.47-1.65-4.58,1.9,0.07,0.49.22,0.45,0.22,0.67C92.58,64.14,94.6,67,95.82,63.56Z"/>
      <path class="cls-12" d="M80.75,58.94c-3.84.26-3,2.05-1.56,4.47,2.35,4,3.11,4,5.21.39-2.57,2.17-3.48.92-4.75-1.32C78.72,60.79,78.5,60.26,80.75,58.94Z"/>
      <path class="cls-12" d="M93.61,58.34c-3.95,0-3.52,1.91-2.12,4.32,2.35,4,3,3.89,4.75.28-2.29,2.39-3,1-4.29-1.22C91,60.05,91.24,59.2,93.61,58.34Z"/>
      <g>
        <path class="cls-13" d="M101.61,70.4a4.34,4.34,0,0,0,8.68-.38,4.53,4.53,0,0,0-2-3.76C105.06,67.4,104.06,68.23,101.61,70.4Z"/>
        <ellipse cx="105.84" cy="70.21" rx="2.28" ry="2.36"/>
        <ellipse class="cls-14" cx="107.81" cy="68.67" rx="1.27" ry="1.31"/>
        <ellipse class="cls-14" cx="103.61" cy="70.57" rx="1.05" ry="1.08"/>
      </g>
      <g>
        <path class="cls-15" d="M75.42,71.6a5.54,5.54,0,0,1-11.06-.49,5.77,5.77,0,0,1,2.51-4.79C71,67.77,72.3,68.83,75.42,71.6Z"/>
        <ellipse cx="70.04" cy="71.36" rx="2.91" ry="3.01"/>
        <ellipse class="cls-14" cx="67.52" cy="69.39" rx="1.62" ry="1.67"/>
        <ellipse class="cls-14" cx="72.87" cy="71.82" rx="1.34" ry="1.38"/>
      </g>
      <path class="cls-12" d="M38.26,81.63c-5,13-10.57,20,2.87,35.38,9.7,2.34,11.49,7.21,21.85,9.8,1.71,4.26,3.17,5.05,4.64,10.22l1.55,2.59c2.25,1.9,7.16,2.73,10.12,2.73h1c4-2.14,6.39-3.37,11-3.88,5.3,1.63,6,2.16,11.1,2.16,3.21,0,10.08-6.09,12.5-8.78,2.14-2.19,0-7.27-1.12-9.5l6-4.75,1.12-2.88c-0.19-1.68.12-1.22-.07-2.9,6.91-7.08,7.08-21.26,1.7-29.43-2-3-4.15-6-6.54-9,0.58-4.78,2.13-11.79-.7-16,9.83-14.74,9.27-16.67,1.73-30.18-3.41-7.49-3.63-15.19-4.53-23.09C112,0,110.31-.18,107.07,4.62,98.89,16.79,101.78,29.34,95,41.77c-13.94-1.36-18.82-.44-32.31,1.44-7.59-10-9.17-32.92-27.09-39.41-3.56-1.29-5.94-1.59-3.54,3.87l0.28,0.72c4,18.7-1.11,19.32-4,36.15-0.71,4.17.32,7.5,4.53,15.51,5.44,9.16,6.55,10.84,5.34,21.58h0Zm26.31,35.82c1.69,2.15,5,7.77,8.12,9.07a7.34,7.34,0,0,0,4.1.46c0.05,0.19,10.79-5.4,17.06-6.25,2.54-.34,14.52,4.36,17.61,4.36a14.62,14.62,0,0,1,.28,5.9c-2.74,1.82-6.78,5.24-9.55,6.33-1.19,0-5.67-.89-7.65-1.22l-0.12-.47L97.55,133a63.83,63.83,0,0,0-18.83,6.33c-4.47.54-6.61-1.48-9.27-4.61-2.5-7.88-3.66-10-9.69-15.54l1.83,3.88c-8.31-4.32-10.88-5.09-16.47-7.75-2.18-.18-7.51-9.33-8-12-1.46-8.91-.28-10.15,4.11-16.6,5.64-3.77,5.46-5,12.17-5.65-5.3-1.36-7.33-1.43-12.36,1C43,71.72,40.28,67.2,35.73,58.18V57.46c-8.6-16.5,5.78-26.91,0-48.92,7.76,6.22,10.19,18.21,12.55,30.92a47.2,47.2,0,0,0-3.91-24.62c7.43,10,8.48,20.37,12.38,25.54,2.13,2.82,2,7.11-1.55,12,3.71-.69,5.43-2.64,7.08-5.68C71.87,44,75.34,46.3,85,49.11l-5.34-3.88c9.72-1.07,13.09-2.07,22.48,1.3,3.35,3.8,6.66,8.23,10.26,11.65,1,2.07.72,3.35,0.42,5.61-4.07-1.53-9.17,3.89-15.45,10.22l-1.54-5.32c-0.71,5.12,1.57,7.38-2.48,9.1a5.92,5.92,0,0,0,4-.32c9.64,1.48,8.36,1.05,17.42-1.44,1.88,2.72,3.64,5.35,5.37,8,3.14,4.87,4.28,20.73-.36,24.89-2.15-4.22-3.32-6.75-3.32-11.62-2.55,5.23.2,8.86,1.26,14.1-1.86,6-2.56,6.85-8.15,10.07-5-.89-9.34-3.21-14-5.18q-0.14-3.31-.28-6.62a25.42,25.42,0,0,0,12.78-10.22c2-3,1.86-4.73.64-7.08-1.63-3.14-6.06-6.84-8.64-9.32,2.4,4.27,6.71,8.23,1.35,8.81-4.69.51-6.79,0.25-12.36,0.09-4.61-.13-9.45.45-9.78,3.9L75.91,94c5.1,6.7,8.7,12,16.44,15.54,0.22,7.07-.55,6.5-6.32,10.5-6.85,3.43-8.87,5.74-15,1.73-4.12-5.34-5.55-7-5.58-9.86,0-1.95-.29-3.49-0.29-6.54l-0.31-3.1-2.63-6.39c0.36,3.59,1,5.58.85,7.82-0.92,5.39-.54,9.31.35,11.85a3.35,3.35,0,0,0,.39.78c0.41,0.6.79,1.12,0.79,1.12h0ZM110.43,15c1,22.28,16.2,22.83,3.66,37.95-1-1.08-3.3-3.08-2.32-5.26,5.47-12.1-3.43-12.76-1.34-32.69h0Zm-1.92-5.3c-5,14.51,3.39,28.68-.38,36.85-3.14-2.3-5-3.8-9.25-4.6,5.53-8.53,4.19-25.74,9.63-32.26h0ZM52,69c4.52-7.28,12-5.32,17.6-2.7,4.81,2.27,6.75,4.63,8.81,8.59h0.42c2.25-1.44,1.91-2.82,2.25-5.47a10.66,10.66,0,0,1,1,5.47c3.42,2.34,4.77,2.67,6.77,2-2.77,4-5.63-1.91-9,4l-1.4,7.34-0.7-4.17,0.14-2.3,0.28-2.45c-3.76,2.32-11.65,1.46-15.79-.87-3.4-1.92-3.5-4.39-3.18-10.78C56.19,67,55,68,52,69h0Zm9.19-.62c5.53-.92,11.93.11,15.57,8.53-4.85,3.31-18.36,3.18-15.7-8.1Zm40.26,59.1c-1.51-.06-2.83-0.24-4.36-0.29l1.05,0.65c0,1.31-1.38,1.5-2.76,1.54a25.24,25.24,0,0,0-5.67.62l2-1.44a1.84,1.84,0,0,1-.63.07,38,38,0,0,0-5.27,2.08,12.32,12.32,0,0,1,15.59-3.24h0ZM106.4,92c2.15,1.56.11,6.16-.84,6.33l0.42-1.8c-4.87.94-11.44,1.2-16.3,0.07-1.08-.13-6-1.39-6,1q0,0.54.07,1.08l-1-1.08c1-2.91,3-3.59,6.21-3.61,5,0,8,.69,12.36.36,2.36-.18,4,0,5.1-2.36h0Zm-5.62-16.83c2.53-6.28,6.46-9,10.45-8.36,1.87,1.22,2.39,7.1-1,8.3C103.86,77.35,102,76.54,100.78,75.16Z"/>
      <g id="Magnify">
        <path class="cls-12" d="M52.86,107.43l9.34-.82c2.33,0.48,4.83,5.11,1.23,7.28L53.25,114l-0.39-6.58h0Zm64.27-2.84,22-1.94c4.5-.4,4.76,9.9,1.5,11.07l-22,.56,0.07-.32v-0.83l-0.41-2.19-0.1-.42-0.1-2.5Z"/>
        <path class="cls-16" d="M138.21,103.53l-20.56,1.94,0.68,2.45,0,0.14,16.78-.24-7.79,1L140.66,109C140.73,106,140.41,104.37,138.21,103.53Z"/>
        <g>
          <path class="cls-17" d="M30.87,90.5c12,1.79,20.35,13.22,18.61,25.53a22.08,22.08,0,0,1-24.93,19.06c-12-1.79-20.35-13.22-18.61-25.53A22.08,22.08,0,0,1,30.87,90.5Z"/>
          <path class="cls-12" d="M31.5,86.06c14.41,2.14,24.4,15.85,22.31,30.61s-15.47,25-29.89,22.85-24.4-15.85-22.31-30.61,15.47-25,29.89-22.85h0Zm-0.77,5.42A21.11,21.11,0,0,0,6.9,109.7a21.46,21.46,0,0,0,17.79,24.4,21.11,21.11,0,0,0,23.83-18.21A21.46,21.46,0,0,0,30.73,91.48Z"/>
          <path class="cls-6" d="M30.49,93.21a19.86,19.86,0,0,1-.18,39.2A19.9,19.9,0,0,0,27.18,94a18.93,18.93,0,0,0-5.37,0A18.83,18.83,0,0,1,30.49,93.21Z"/>
          <path class="cls-16" d="M39.64,131.38a21.27,21.27,0,0,1-15.45,3.69C12.31,133.31,4.07,122,5.8,109.84A22.31,22.31,0,0,1,13.68,95.7a22.28,22.28,0,0,0-9.18,15.14C2.77,123,11,134.3,22.88,136.07A21.32,21.32,0,0,0,39.64,131.38Z"/>
          <path class="cls-16" d="M31.35,87.09c13.86,2.06,23.46,15.24,21.45,29.43a26,26,0,0,1-10.55,17.53,26,26,0,0,0,9.33-16.6C53.6,103.26,44,90.08,30.14,88a24.82,24.82,0,0,0-18.19,4.44A24.86,24.86,0,0,1,31.35,87.09Z"/>
        </g>
      </g>
    </g>
    <g>
      <path class="cls-18" d="M209.45,114.09a11.7,11.7,0,0,1-.8,4.38,9.83,9.83,0,0,1-5.7,5.67,12.17,12.17,0,0,1-4.48.79h-8.28V103.25h8.28a12.09,12.09,0,0,1,4.48.8,10.15,10.15,0,0,1,3.46,2.24,10,10,0,0,1,2.23,3.43A11.7,11.7,0,0,1,209.45,114.09Zm-4.12,0a10,10,0,0,0-.48-3.2,6.8,6.8,0,0,0-1.37-2.4,5.91,5.91,0,0,0-2.15-1.51,7.42,7.42,0,0,0-2.86-.53h-4.22v15.27h4.22a7.4,7.4,0,0,0,2.86-.53,5.9,5.9,0,0,0,2.15-1.51,6.79,6.79,0,0,0,1.37-2.4A10,10,0,0,0,205.33,114.09Z"/>
      <path class="cls-18" d="M224.69,124.94h-4.05V103.25h4.05v21.69Z"/>
      <path class="cls-18" d="M247.05,122a10.09,10.09,0,0,0,2.38-.25,10,10,0,0,0,1.93-.68v-3.94h-2.71a0.85,0.85,0,0,1-.62-0.22,0.71,0.71,0,0,1-.22-0.53v-2.28H255v8.78a12,12,0,0,1-1.72,1,10.9,10.9,0,0,1-1.91.73,14.63,14.63,0,0,1-2.17.43,20.45,20.45,0,0,1-2.49.14,11.32,11.32,0,0,1-4.37-.83,10.24,10.24,0,0,1-5.72-5.8,11.87,11.87,0,0,1-.82-4.46,12.27,12.27,0,0,1,.79-4.49,9.88,9.88,0,0,1,5.81-5.79,12.83,12.83,0,0,1,4.68-.81,12.19,12.19,0,0,1,4.6.79,10.61,10.61,0,0,1,3.29,2l-1.17,1.83a1,1,0,0,1-.92.55,1.36,1.36,0,0,1-.73-0.24l-1-.57a6.61,6.61,0,0,0-1.11-.5,9.09,9.09,0,0,0-1.37-.35,10.06,10.06,0,0,0-1.75-.13,7.48,7.48,0,0,0-2.9.54,6.15,6.15,0,0,0-2.21,1.54,7,7,0,0,0-1.41,2.42,9.47,9.47,0,0,0-.5,3.15,9.82,9.82,0,0,0,.53,3.34A7,7,0,0,0,242,119.9a6.32,6.32,0,0,0,2.25,1.54A7.47,7.47,0,0,0,247.05,122Z"/>
      <path class="cls-18" d="M270.86,124.94h-4.05V103.25h4.05v21.69Z"/>
      <path class="cls-18" d="M298.55,103.25v3.32H292v18.38h-4V106.56h-6.55v-3.32h17.11Z"/>
      <path class="cls-18" d="M325.5,124.94h-3.12a1.36,1.36,0,0,1-.86-0.26A1.49,1.49,0,0,1,321,124l-1.62-4.42h-9L308.81,124a1.42,1.42,0,0,1-.47.63,1.33,1.33,0,0,1-.86.29h-3.13l8.52-21.69H317Zm-14-8.19h6.92l-2.64-7.21q-0.18-.48-0.4-1.13T314.92,107q-0.21.76-.41,1.42t-0.4,1.16Z"/>
      <path class="cls-18" d="M339.3,121.61H348v3.33H335.27V103.25h4v18.36Z"/>
      <path class="cls-18" d="M385.31,103.25v3.21h-9.62v6.42h8.12v3.22h-8.12v8.83h-4.06V103.25h13.68Z"/>
      <path class="cls-18" d="M416.81,114.09a12,12,0,0,1-.79,4.42,10.47,10.47,0,0,1-2.24,3.52,10.12,10.12,0,0,1-3.46,2.32,12.51,12.51,0,0,1-9,0,10.17,10.17,0,0,1-3.48-2.32,10.4,10.4,0,0,1-2.24-3.52,12.67,12.67,0,0,1,0-8.83,10.41,10.41,0,0,1,2.24-3.52,10.18,10.18,0,0,1,3.48-2.32,11.75,11.75,0,0,1,4.49-.83,11.59,11.59,0,0,1,4.49.84,10.26,10.26,0,0,1,3.46,2.32,10.4,10.4,0,0,1,2.24,3.51A12,12,0,0,1,416.81,114.09Zm-4.14,0a10.12,10.12,0,0,0-.47-3.2,6.79,6.79,0,0,0-1.36-2.41,5.84,5.84,0,0,0-2.15-1.51,8.05,8.05,0,0,0-5.72,0,5.89,5.89,0,0,0-2.17,1.51,6.8,6.8,0,0,0-1.37,2.41,10.91,10.91,0,0,0,0,6.41,6.72,6.72,0,0,0,1.37,2.4A5.94,5.94,0,0,0,403,121.2a8.05,8.05,0,0,0,5.72,0,5.89,5.89,0,0,0,2.15-1.51,6.71,6.71,0,0,0,1.36-2.4A10.12,10.12,0,0,0,412.67,114.09Z"/>
      <path class="cls-18" d="M431.69,116.46v8.47h-4V103.25h6.62a13.82,13.82,0,0,1,3.8.46,7.25,7.25,0,0,1,2.6,1.28,5,5,0,0,1,1.48,2,6.91,6.91,0,0,1,.15,4.6,6,6,0,0,1-.93,1.77,6.28,6.28,0,0,1-1.5,1.4,7.88,7.88,0,0,1-2,1,4,4,0,0,1,1.32,1.25l5.43,8H441a1.78,1.78,0,0,1-.89-0.21,1.82,1.82,0,0,1-.62-0.6l-4.56-6.95a1.59,1.59,0,0,0-.56-0.55,2,2,0,0,0-.91-0.17h-1.72Zm0-2.9h2.52a6.23,6.23,0,0,0,2-.29,3.84,3.84,0,0,0,1.4-.79,3.17,3.17,0,0,0,.82-1.19,4.13,4.13,0,0,0,.27-1.52,3.08,3.08,0,0,0-1.09-2.53,5.2,5.2,0,0,0-3.32-.89h-2.58v7.2Z"/>
      <path class="cls-18" d="M468.38,103.25v3.21h-9.62v6h7.58v3.1h-7.58v6.14h9.62v3.22H454.7V103.25h13.68Z"/>
      <path class="cls-18" d="M482,103.27a1.07,1.07,0,0,1,.32.09,1.08,1.08,0,0,1,.28.19,3.22,3.22,0,0,1,.3.34l11.38,14.5q-0.06-.52-0.08-1t0-.94V103.25h3.56v21.69h-2.08a1.84,1.84,0,0,1-.79-0.15,1.76,1.76,0,0,1-.62-0.54L482.87,109.8q0,0.48.07,1t0,0.86v13.32H479.4V103.25h2.11Z"/>
      <path class="cls-18" d="M521.24,107.19a1.12,1.12,0,0,1-.38.46,1,1,0,0,1-.52.14,1.31,1.31,0,0,1-.67-0.23l-0.88-.52a7.17,7.17,0,0,0-1.19-.52,5,5,0,0,0-1.61-.23,4.74,4.74,0,0,0-1.46.2,3.09,3.09,0,0,0-1.05.56,2.25,2.25,0,0,0-.64.86,2.82,2.82,0,0,0-.21,1.1,1.92,1.92,0,0,0,.43,1.28,3.58,3.58,0,0,0,1.13.87,10.5,10.5,0,0,0,1.61.64l1.84,0.61a17.69,17.69,0,0,1,1.84.75,6.38,6.38,0,0,1,1.6,1.08,4.9,4.9,0,0,1,1.13,1.6,5.54,5.54,0,0,1,.43,2.29,7.47,7.47,0,0,1-.5,2.75,6.35,6.35,0,0,1-1.47,2.24,6.92,6.92,0,0,1-2.36,1.5,8.7,8.7,0,0,1-3.2.55,10.24,10.24,0,0,1-2-.2,10.73,10.73,0,0,1-1.93-.58,10,10,0,0,1-1.72-.9,8.43,8.43,0,0,1-1.43-1.17l1.17-1.93a1.5,1.5,0,0,1,.4-0.35,1,1,0,0,1,.52-0.14,1.43,1.43,0,0,1,.81.31q0.44,0.31,1,.68a7.86,7.86,0,0,0,1.39.68,5.39,5.39,0,0,0,1.93.31,4,4,0,0,0,2.67-.82,2.93,2.93,0,0,0,.95-2.35,2.18,2.18,0,0,0-.43-1.4,3.45,3.45,0,0,0-1.13-.91,8.51,8.51,0,0,0-1.6-.62q-0.9-.25-1.83-0.55a15.73,15.73,0,0,1-1.83-.72,5.94,5.94,0,0,1-1.61-1.09,5,5,0,0,1-1.13-1.69,6.43,6.43,0,0,1-.43-2.5,6,6,0,0,1,1.85-4.3,6.82,6.82,0,0,1,2.23-1.4,8.11,8.11,0,0,1,3-.52,10.13,10.13,0,0,1,3.54.6,8,8,0,0,1,2.76,1.68Z"/>
      <path class="cls-18" d="M537.78,124.94h-4.05V103.25h4.05v21.69Z"/>
      <path class="cls-18" d="M565.1,119.82a0.76,0.76,0,0,1,.57.25l1.59,1.73a8.74,8.74,0,0,1-3.25,2.5,11.19,11.19,0,0,1-4.63.87,10.93,10.93,0,0,1-4.34-.83,9.56,9.56,0,0,1-3.29-2.29,10.06,10.06,0,0,1-2.09-3.51,13.17,13.17,0,0,1-.73-4.46,12,12,0,0,1,.81-4.48,10.1,10.1,0,0,1,5.8-5.79,12.1,12.1,0,0,1,4.52-.82,10.67,10.67,0,0,1,4.22.77,9.87,9.87,0,0,1,3.1,2L566,107.7a1.22,1.22,0,0,1-.31.32,0.87,0.87,0,0,1-.52.13,1.18,1.18,0,0,1-.71-0.27,8.63,8.63,0,0,0-.92-0.58,7.46,7.46,0,0,0-1.4-.58,7.19,7.19,0,0,0-2.15-.27,7.27,7.27,0,0,0-2.81.53A6.27,6.27,0,0,0,555,108.5a7,7,0,0,0-1.44,2.41,9.25,9.25,0,0,0-.52,3.19,9.51,9.51,0,0,0,.52,3.25,7.16,7.16,0,0,0,1.4,2.4,6,6,0,0,0,2.08,1.49,6.45,6.45,0,0,0,2.58.52,11.33,11.33,0,0,0,1.49-.09,6.39,6.39,0,0,0,1.23-.29,5.45,5.45,0,0,0,1.07-.5,6.61,6.61,0,0,0,1-.76,1.4,1.4,0,0,1,.32-0.22A0.79,0.79,0,0,1,565.1,119.82Z"/>
      <path class="cls-18" d="M589.46,107.19a1.12,1.12,0,0,1-.38.46,1,1,0,0,1-.52.14,1.31,1.31,0,0,1-.67-0.23L587,107a7.17,7.17,0,0,0-1.19-.52,5,5,0,0,0-1.61-.23,4.74,4.74,0,0,0-1.46.2,3.09,3.09,0,0,0-1.05.56,2.25,2.25,0,0,0-.64.86,2.82,2.82,0,0,0-.21,1.1,1.92,1.92,0,0,0,.43,1.28,3.58,3.58,0,0,0,1.13.87,10.5,10.5,0,0,0,1.61.64l1.84,0.61a17.69,17.69,0,0,1,1.84.75,6.38,6.38,0,0,1,1.6,1.08,4.9,4.9,0,0,1,1.13,1.6,5.54,5.54,0,0,1,.43,2.29,7.47,7.47,0,0,1-.5,2.75,6.35,6.35,0,0,1-1.47,2.24,6.92,6.92,0,0,1-2.36,1.5,8.7,8.7,0,0,1-3.2.55,10.24,10.24,0,0,1-2-.2,10.73,10.73,0,0,1-1.93-.58,10,10,0,0,1-1.72-.9,8.43,8.43,0,0,1-1.43-1.17l1.17-1.93a1.5,1.5,0,0,1,.4-0.35,1,1,0,0,1,.52-0.14,1.43,1.43,0,0,1,.81.31q0.44,0.31,1,.68a7.86,7.86,0,0,0,1.39.68,5.39,5.39,0,0,0,1.93.31,4,4,0,0,0,2.67-.82,2.93,2.93,0,0,0,.95-2.35,2.18,2.18,0,0,0-.43-1.4,3.45,3.45,0,0,0-1.13-.91,8.51,8.51,0,0,0-1.6-.62q-0.9-.25-1.83-0.55a15.73,15.73,0,0,1-1.83-.72,5.94,5.94,0,0,1-1.61-1.09,5,5,0,0,1-1.13-1.69,6.43,6.43,0,0,1-.43-2.5,6,6,0,0,1,1.85-4.3,6.82,6.82,0,0,1,2.23-1.4,8.11,8.11,0,0,1,3-.52,10.13,10.13,0,0,1,3.54.6,8,8,0,0,1,2.76,1.68Z"/>
    </g>
    <g>
      <path class="cls-18" d="M251,90.94h-9.15a4,4,0,0,1-2.53-.77,4.38,4.38,0,0,1-1.43-1.91l-4.75-13H206.74l-4.75,13a4.17,4.17,0,0,1-1.39,1.85,3.89,3.89,0,0,1-2.53.84h-9.2l25-63.62H226Zm-41.18-24h20.28l-7.74-21.16q-0.53-1.41-1.17-3.32t-1.25-4.16q-0.62,2.24-1.21,4.18t-1.17,3.39Z"/>
      <path class="cls-18" d="M280.58,81.39a15.61,15.61,0,0,0,6.14-1.14A12.77,12.77,0,0,0,291.29,77a14,14,0,0,0,2.86-5,20.68,20.68,0,0,0,1-6.6V27.31H307v38.1a29.39,29.39,0,0,1-1.83,10.49,23.73,23.73,0,0,1-5.26,8.32,24,24,0,0,1-8.32,5.46,31.88,31.88,0,0,1-22,0A23.31,23.31,0,0,1,256,75.91a29.37,29.37,0,0,1-1.83-10.49V27.31h11.84V65.37a20.65,20.65,0,0,0,1,6.6,14.45,14.45,0,0,0,2.84,5,12.45,12.45,0,0,0,4.55,3.23A15.62,15.62,0,0,0,280.58,81.39Z"/>
      <path class="cls-18" d="M363.6,27.31V37H344.46v53.9H332.63V37H313.4V27.31h50.2Z"/>
      <path class="cls-18" d="M428.46,59.13a35.26,35.26,0,0,1-2.33,13,30.72,30.72,0,0,1-6.56,10.32,29.69,29.69,0,0,1-10.16,6.8,36.71,36.71,0,0,1-26.33,0,29.85,29.85,0,0,1-10.21-6.8,30.5,30.5,0,0,1-6.58-10.32,35.24,35.24,0,0,1-2.33-13,35.25,35.25,0,0,1,2.33-13,30.5,30.5,0,0,1,6.58-10.32,29.86,29.86,0,0,1,10.21-6.8,34.45,34.45,0,0,1,13.18-2.44,34,34,0,0,1,13.16,2.46,30.12,30.12,0,0,1,10.16,6.8,30.48,30.48,0,0,1,6.56,10.3A35.27,35.27,0,0,1,428.46,59.13Zm-12.14,0a29.63,29.63,0,0,0-1.39-9.39,19.87,19.87,0,0,0-4-7.06,17.15,17.15,0,0,0-6.31-4.44,23.64,23.64,0,0,0-16.79,0,17.3,17.3,0,0,0-6.36,4.44,19.94,19.94,0,0,0-4,7.06,29.18,29.18,0,0,0-1.41,9.39,29.18,29.18,0,0,0,1.41,9.39,19.71,19.71,0,0,0,4,7A17.41,17.41,0,0,0,387.85,80a23.64,23.64,0,0,0,16.79,0,17.26,17.26,0,0,0,6.31-4.42,19.64,19.64,0,0,0,4-7A29.63,29.63,0,0,0,416.31,59.13Z"/>
      <path class="cls-18" d="M449.76,68.54v22.4H437.92V27.31h20.72a36.32,36.32,0,0,1,11,1.5,21.28,21.28,0,0,1,7.7,4.18,16.39,16.39,0,0,1,4.49,6.42,22.43,22.43,0,0,1,1.45,8.18,22.61,22.61,0,0,1-1.54,8.47,17.59,17.59,0,0,1-4.62,6.62,21.5,21.5,0,0,1-7.7,4.31,34.27,34.27,0,0,1-10.82,1.54h-8.89Zm0-9.24h8.89a17.81,17.81,0,0,0,5.68-.81,10.54,10.54,0,0,0,4-2.33,9.54,9.54,0,0,0,2.38-3.7,14.14,14.14,0,0,0,.79-4.86A12.83,12.83,0,0,0,470.7,43a9.12,9.12,0,0,0-2.38-3.52,10.57,10.57,0,0,0-4-2.22,18.79,18.79,0,0,0-5.68-.77h-8.89V59.3Z"/>
      <path class="cls-18" d="M526.36,38.89a3.27,3.27,0,0,1-1.12,1.36,2.82,2.82,0,0,1-1.52.4,3.85,3.85,0,0,1-2-.68q-1.1-.68-2.6-1.52a21.27,21.27,0,0,0-3.5-1.52,14.7,14.7,0,0,0-4.73-.68,13.9,13.9,0,0,0-4.29.59,9.08,9.08,0,0,0-3.08,1.65A6.59,6.59,0,0,0,501.67,41a8.3,8.3,0,0,0-.62,3.23A5.62,5.62,0,0,0,502.31,48a10.48,10.48,0,0,0,3.32,2.55,30.77,30.77,0,0,0,4.71,1.89q2.64,0.84,5.39,1.78a52.05,52.05,0,0,1,5.39,2.2,18.69,18.69,0,0,1,4.71,3.17,14.37,14.37,0,0,1,3.32,4.69A16.28,16.28,0,0,1,530.41,71a21.93,21.93,0,0,1-1.47,8.07,18.62,18.62,0,0,1-4.31,6.56,20.3,20.3,0,0,1-6.93,4.4,25.52,25.52,0,0,1-9.37,1.61,30.25,30.25,0,0,1-6-.59,31.54,31.54,0,0,1-5.65-1.69,29.45,29.45,0,0,1-5.06-2.64,24.89,24.89,0,0,1-4.2-3.43l3.43-5.68a4.4,4.4,0,0,1,1.17-1,2.85,2.85,0,0,1,1.52-.42,4.21,4.21,0,0,1,2.38.9q1.28,0.9,3,2a23.05,23.05,0,0,0,4.09,2,15.82,15.82,0,0,0,5.65.9q5.06,0,7.83-2.4a8.61,8.61,0,0,0,2.77-6.89A6.39,6.39,0,0,0,518,68.58a10.13,10.13,0,0,0-3.32-2.66A24.87,24.87,0,0,0,510,64.1q-2.64-.75-5.37-1.63a46.11,46.11,0,0,1-5.37-2.11,17.39,17.39,0,0,1-4.71-3.21,14.61,14.61,0,0,1-3.32-5A18.86,18.86,0,0,1,490,44.87a17.51,17.51,0,0,1,5.43-12.63,20,20,0,0,1,6.53-4.09,23.79,23.79,0,0,1,8.84-1.54,29.69,29.69,0,0,1,10.38,1.76,23.45,23.45,0,0,1,8.1,4.93Z"/>
      <path class="cls-18" d="M567.5,66.21V90.94H555.66V66.21l-23.19-38.9H542.9a3.71,3.71,0,0,1,2.44.75A6.31,6.31,0,0,1,546.86,30l11.66,21.25q1,1.89,1.76,3.59t1.36,3.32q0.57-1.67,1.3-3.37t1.74-3.54L576.25,30a5.89,5.89,0,0,1,1.45-1.8,3.64,3.64,0,0,1,2.46-.84h10.47Z"/>
    </g>
  </g>
</svg>